<svg xmlns="http://www.w3.org/2000/svg" height="18" width="20" class="Footer-Logos"><path d="M19.9617 2.80751C19.2242 3.13167 18.4367 3.35251 17.6075 3.45334C18.4525 2.94417 19.1025 2.14167 19.41 1.18417C18.6175 1.64667 17.7392 1.98334 16.8042 2.17084C16.0575 1.37167 14.9933 0.871674 13.8117 0.871674C11.5475 0.871674 9.71167 2.70751 9.71167 4.96917C9.71167 5.29417 9.74917 5.60667 9.8175 5.90584C6.40917 5.74501 3.38833 4.10834 1.36667 1.63417C1.01083 2.23584 0.811667 2.93501 0.811667 3.69667C0.811667 5.12167 1.53667 6.37417 2.635 7.11001C1.9625 7.08834 1.33 6.90334 0.778333 6.59667V6.64751C0.778333 8.63501 2.18917 10.2925 4.06667 10.67C3.7225 10.7625 3.35917 10.8125 2.98667 10.8125C2.725 10.8125 2.47417 10.7875 2.22333 10.7408C2.74917 12.3683 4.26083 13.555 6.06 13.5883C4.66 14.6875 2.88583 15.3425 0.975 15.3425C0.65 15.3425 0.325833 15.3233 0 15.2867C1.82417 16.4483 3.97333 17.1275 6.2975 17.1275C13.8425 17.1275 17.9633 10.8808 17.9633 5.47251C17.9633 5.29834 17.9633 5.12251 17.9508 4.94751C18.7517 4.37334 19.4508 3.64751 20.0008 2.82417L19.9617 2.80751Z"/></svg>